# xmcd
# 
# Track frame offsets:
#     150
#     16407
#     30897
#     48055
#     62837
#     75518
#     92845
#     110142
#     129268
#     148900
# 
# Disc length: 2183
# 
# Revision: 1
# Processed by: cddbd v1.5.2PL0 Copyright (c) Steve Scherf et al.
# Submitted via: fre:ac v1.1beta1pre5
# 
DISCID=7a08850a
DTITLE=Natalia Clavier - Trans
DYEAR=2018
DGENRE=Rock
TTITLE0=This Feeling
TTITLE1=No Es Amor
TTITLE2=Fenix
TTITLE3=Hotel Lisboa
TTITLE4=Miedo
TTITLE5=Pocito
TTITLE6=Quien Soy?
TTITLE7=Sirenita
TTITLE8=1000 Echoes
TTITLE9=Ahora Si
EXTD=
EXTT0=
EXTT1=
EXTT2=
EXTT3=
EXTT4=
EXTT5=
EXTT6=
EXTT7=
EXTT8=
EXTT9=
PLAYORDER=
